g ETFX_CirclePlane
v -6.721888E-08 -0.5048052 -8.592606E-07
v 4.390876E-09 -2.955403E-10 -7.781983E-07
v 0.1306531 -0.4876044 -8.592606E-07
v -0.1306536 -0.4876043 -8.592606E-07
v 0.2524025 -0.4371742 -8.592606E-07
v -0.252403 -0.4371739 -8.592606E-07
v 0.3569511 -0.3569512 -8.592606E-07
v -0.3569514 -0.3569509 -8.592606E-07
v 0.4371741 -0.2524026 -8.592606E-07
v -0.4371743 -0.2524023 -8.592606E-07
v 0.4876043 -0.1306533 -8.592606E-07
v -0.4876044 -0.1306529 -8.592606E-07
v 0.5048052 -1.053306E-07 -8.592606E-07
v -0.5048052 3.01909E-07 -8.592606E-07
v 0.4876044 0.1306531 -8.592606E-07
v -0.4876043 0.1306535 -8.592606E-07
v 0.4371742 0.2524025 -8.592606E-07
v -0.437174 0.2524028 -8.592606E-07
v 0.3569513 0.3569511 -8.592606E-07
v -0.356951 0.3569514 -8.592606E-07
v 0.2524028 0.437174 -8.592606E-07
v -0.2524023 0.4371743 -8.592606E-07
v 0.1306534 0.4876043 -8.592606E-07
v -0.1306529 0.4876044 -8.592606E-07
v 2.637973E-07 0.5048052 -8.592606E-07
vn 0 0 1
vn 0 0 1
vn 0 0 1
vn 0 0 1
vn 0 0 1
vn 0 0 1
vn 0 0 1
vn 0 0 1
vn 0 0 1
vn 0 0 1
vn 0 0 1
vn 0 0 1
vn 0 0 1
vn 0 0 1
vn 0 0 1
vn 0 0 1
vn 0 0 1
vn 0 0 1
vn 0 0 1
vn 0 0 1
vn 0 0 1
vn 0 0 1
vn 0 0 1
vn 0 0 1
vn 0 0 1
g ETFX_CirclePlane_0
f 3/3/3 2/2/2 1/1/1
f 1/1/1 2/2/2 4/4/4
f 5/5/5 2/2/2 3/3/3
f 4/4/4 2/2/2 6/6/6
f 7/7/7 2/2/2 5/5/5
f 6/6/6 2/2/2 8/8/8
f 9/9/9 2/2/2 7/7/7
f 8/8/8 2/2/2 10/10/10
f 11/11/11 2/2/2 9/9/9
f 10/10/10 2/2/2 12/12/12
f 13/13/13 2/2/2 11/11/11
f 12/12/12 2/2/2 14/14/14
f 15/15/15 2/2/2 13/13/13
f 14/14/14 2/2/2 16/16/16
f 17/17/17 2/2/2 15/15/15
f 16/16/16 2/2/2 18/18/18
f 19/19/19 2/2/2 17/17/17
f 18/18/18 2/2/2 20/20/20
f 21/21/21 2/2/2 19/19/19
f 20/20/20 2/2/2 22/22/22
f 23/23/23 2/2/2 21/21/21
f 22/22/22 2/2/2 24/24/24
f 25/25/25 2/2/2 23/23/23
f 24/24/24 2/2/2 25/25/25
